<svg width="32" height="32" viewBox="0 0 32 32" fill="none" xmlns="http://www.w3.org/2000/svg">
<path d="M2.08154 21.1369C2.27235 21.5205 3.93182 22.2895 5.64236 22.4225C5.9403 22.4456 6.12516 22.2317 6.28706 22.0707C7.39346 20.9709 6.58002 18.1225 6.48269 17.2533C6.13778 14.173 6.63977 9.06196 7.37602 8.51652C8.80109 7.46078 9.9799 7.90361 11.0718 7.86988C11.9384 7.84311 12.4874 8.22356 12.8401 8.35076C13.002 8.47797 13.1292 8.73238 13.2266 8.95885C13.3239 9.18531 13.3875 9.37612 13.0675 9.57271" stroke="#131313" stroke-width="1.04078" stroke-linecap="round"/>
<path d="M3.43073 15.3548C3.81427 15.2912 5.60094 14.7805 7.05707 14.5521C7.47434 14.4567 7.86175 14.3275 8.24626 14.1994C8.43996 14.1348 8.63077 14.0712 9.02009 14.0057" stroke="#131313" stroke-width="1.04078" stroke-linecap="round"/>
<path d="M13.0676 12.4638C12.4932 13.0362 11.2096 15.9793 10.9157 17.792C10.842 18.2461 10.7547 18.693 10.8183 19.1739C10.9434 20.1198 11.9728 20.7476 12.8392 21.6477C13.6438 22.2278 14.5401 22.6133 15.4093 22.8706C15.6348 22.9352 15.8892 22.9988 16.1514 23.0643" stroke="#131313" stroke-width="1.04078" stroke-linecap="round"/>
<path d="M25.4027 12.271C25.5916 12.591 27.8929 14.2485 28.9028 15.7364C29.5481 16.6871 29.3847 18.111 29.4184 19.4938C29.4413 20.4322 28.4248 21.1331 27.9102 21.905C27.6539 22.2895 27.3956 22.6769 27.1075 23.0296C26.9465 23.1915 26.7557 23.3187 26.1737 23.6425" stroke="#131313" stroke-width="1.04078" stroke-linecap="round"/>
<path d="M16.0121 12.6447C16.0026 12.7202 15.4529 13.1262 15.3561 13.2351C15.1548 13.4616 15.3201 14.3117 15.4217 14.5339C15.8235 15.4129 16.6757 15.2545 17.0485 14.4158C17.3354 13.7703 17.0221 13.0277 16.5762 12.671C15.9664 12.1831 15.8697 13.7115 16.2745 14.0354C16.629 14.319 16.7319 13.547 16.7205 13.3532C16.713 13.2249 16.5515 13.0955 16.4253 13.1236C16.0948 13.197 16.1302 13.5988 16.1302 13.8517C16.1302 14.1758 16.0599 14.5686 16.3138 14.8225C16.6577 15.1664 16.8458 14.8577 16.8386 14.4814C16.8258 13.8173 15.9843 13.3023 16.0121 14.2453C16.0314 14.9015 16.8037 13.7484 15.8022 13.8255C15.4595 13.8518 15.7443 14.6022 15.835 14.7635C16.0578 15.1596 16.4975 14.2537 15.8547 14.0222C15.6948 13.9647 16.0672 14.6796 16.1236 14.2846C16.1343 14.21 16.0182 13.4567 15.9202 13.6418C15.411 14.6038 16.7591 14.1399 16.1302 13.8255" stroke="#FFBB38" stroke-width="0.354215" stroke-linecap="round"/>
<path d="M20.1446 12.999C19.451 12.999 19.3181 13.8996 19.3181 14.4749C19.3181 14.8013 20.0328 16.2022 20.3807 15.4194C20.5844 14.9611 20.9785 14.4293 20.6759 13.8845C20.6186 13.7814 20.5113 13.264 20.4332 13.2417C20.0861 13.1425 19.9085 13.029 19.7313 13.4188C19.5884 13.7331 19.7661 14.3655 19.9347 14.652C20.1118 14.9531 20.1516 13.945 20.1446 13.8255C20.1237 13.4716 19.7903 13.5775 19.7903 13.9435C19.7903 14.1811 19.7063 15.3079 20.1446 15.3079C20.626 15.3079 20.1446 13.1204 20.1446 14.5339C20.1446 14.9814 20.3807 15.1551 20.3807 14.5601C20.3807 14.1372 20.5131 13.8255 20.0265 13.8255" stroke="#FF5959" stroke-width="0.354215" stroke-linecap="round"/>
<path d="M23.8048 12.8809C22.8519 12.8809 23.3238 14.8271 24.0999 14.9996C25.4851 15.3074 25.2689 13.5008 24.6313 12.7038C24.4878 12.5244 23.8546 12.3759 23.6867 12.5857C23.3341 13.0265 23.3325 13.2611 23.3325 13.8517C23.3325 14.2417 24.2006 15.0734 24.2705 14.5142C24.2914 14.347 24.3809 13.568 24.2115 13.4712C23.9258 13.308 23.7769 13.4398 23.7129 13.7599C23.5221 14.7139 24.7469 14.9423 24.487 13.7074C24.4123 13.3527 24.1455 12.955 24.159 13.55C24.1625 13.7034 24.4382 14.7212 24.6837 14.16C24.7736 13.9545 24.8937 13.077 24.5722 13.0055C24.1085 12.9025 24.2071 13.8382 24.4214 14.0354C24.8491 14.4289 24.6649 13.1088 24.4214 13.3794C24.208 13.6165 24.6669 14.5637 24.7493 14.3371C24.8183 14.1473 25.0185 13.5507 24.6903 13.4778C24.4 13.4133 24.4715 14.2058 24.5788 14.3437C24.832 14.6693 24.5866 12.8378 24.0409 13.3532C23.7437 13.6338 23.7875 13.9996 24.0409 14.2977C24.4107 14.7328 24.2158 13.933 24.0999 13.7271C23.9805 13.5147 23.6488 13.491 23.8638 13.8255C23.9775 14.0023 24.2479 14.3561 24.3951 14.0616" stroke="#8CD6FF" stroke-width="0.354215" stroke-linecap="round"/>
<path d="M13.4145 18.7845C13.5857 18.7654 13.68 18.6335 13.8015 18.5221C14.4451 17.9322 15.062 17.3242 15.6578 16.6854C15.8553 16.4737 16.1621 15.7643 16.2416 16.0426C16.3565 16.4447 16.2482 17.045 16.2482 17.4529C16.2482 18.5789 16.2482 19.705 16.2482 20.831C16.2482 21.0782 16.2925 21.1246 16.4581 21.2902C17.5388 22.3709 18.3577 20.584 18.6162 19.7225C18.7936 19.1311 19.3541 18.3705 19.6723 17.8136C19.7839 17.6183 19.7965 17.1502 19.9675 17.0134C20.1001 16.9072 20.0265 17.624 20.0265 17.7874C20.0265 18.6754 20.1489 19.6556 20.3873 20.4899C20.4535 20.7216 20.5347 21.2342 20.7087 21.4083C21.2355 21.935 21.8787 20.9546 22.0928 20.6146C22.7155 19.6255 23.2786 18.6592 23.7786 17.6037C23.9566 17.2278 24.0409 15.9677 24.0409 16.3837C24.0409 17.0597 24.1753 17.7328 24.2508 18.404C24.3138 18.964 24.2556 19.7666 24.5657 20.2538C24.7528 20.5478 24.7398 21.2528 25.1692 21.3755C26.7077 21.8151 26.1977 19.1387 27.465 19.1387" stroke="#131313" stroke-width="1.04078" stroke-linecap="round"/>
</svg>
