<svg width="32" height="32" viewBox="0 0 32 32" fill="none" xmlns="http://www.w3.org/2000/svg">
<path d="M11.7611 9.35147C11.7489 9.44929 11.0365 9.97538 10.9111 10.1165C10.6502 10.41 10.8644 11.5116 10.9961 11.7996C11.5168 12.9386 12.6211 12.7334 13.1042 11.6466C13.476 10.81 13.0699 9.84771 12.4921 9.38547C11.7019 8.75326 11.5765 10.7339 12.1011 11.1536C12.5606 11.5211 12.6939 10.5206 12.6791 10.2695C12.6694 10.1033 12.4602 9.93565 12.2966 9.972C11.8683 10.0672 11.9141 10.5878 11.9141 10.9155C11.9141 11.3355 11.8231 11.8446 12.1521 12.1736C12.5977 12.6192 12.8415 12.2191 12.8322 11.7316C12.8156 10.871 11.7252 10.2036 11.7611 11.4256C11.7861 12.276 12.7869 10.7817 11.4891 10.8815C11.045 10.9157 11.4141 11.8881 11.5316 12.0971C11.8203 12.6104 12.3902 11.4365 11.5571 11.1366C11.3499 11.062 11.8325 11.9884 11.9056 11.4766C11.9194 11.3798 11.7691 10.4036 11.6421 10.6435C10.9821 11.8901 12.7292 11.2891 11.9141 10.8815" stroke="#FFBB38" stroke-width="0.459022" stroke-linecap="round"/>
<path d="M17.1163 9.81049C16.2176 9.81049 16.0453 10.9777 16.0453 11.7231C16.0453 12.1461 16.9715 13.9615 17.4224 12.9471C17.6863 12.3532 18.1971 11.664 17.8049 10.958C17.7306 10.8244 17.5916 10.1539 17.4904 10.125C17.0406 9.9965 16.8104 9.84942 16.5808 10.3545C16.3957 10.7618 16.626 11.5814 16.8443 11.9526C17.0739 12.3428 17.1255 11.0364 17.1163 10.8815C17.0894 10.423 16.6573 10.5602 16.6573 11.0345C16.6573 11.3425 16.5484 12.8026 17.1163 12.8026C17.7403 12.8026 17.1163 9.96786 17.1163 11.7996C17.1163 12.3795 17.4224 12.6046 17.4224 11.8336C17.4224 11.2855 17.594 10.8815 16.9633 10.8815" stroke="#FF5959" stroke-width="0.459022" stroke-linecap="round"/>
<path d="M21.8596 9.65747C20.6248 9.65747 21.2363 12.1796 22.2421 12.4031C24.0371 12.802 23.7569 10.4608 22.9306 9.42796C22.7447 9.19554 21.9241 9.00302 21.7065 9.27496C21.2496 9.84613 21.2475 10.1502 21.2475 10.9155C21.2475 11.4209 22.3725 12.4988 22.4631 11.7741C22.4902 11.5574 22.6061 10.548 22.3866 10.4225C22.0164 10.211 21.8235 10.3818 21.7405 10.7965C21.4933 12.0329 23.0805 12.3288 22.7436 10.7285C22.6468 10.269 22.3011 9.7535 22.3186 10.5245C22.3231 10.7234 22.6804 12.0423 22.9986 11.3151C23.1151 11.0488 23.2707 9.91156 22.8541 9.81898C22.2532 9.68544 22.3809 10.8981 22.6586 11.1535C23.2129 11.6635 22.9742 9.95279 22.6586 10.3035C22.382 10.6108 22.9768 11.8382 23.0836 11.5446C23.173 11.2987 23.4325 10.5255 23.0071 10.431C22.6309 10.3474 22.7236 11.3744 22.8626 11.5531C23.1908 11.975 22.8727 9.60164 22.1656 10.2695C21.7805 10.6332 21.8372 11.1073 22.1656 11.4936C22.6447 12.0573 22.3922 11.021 22.2421 10.754C22.0872 10.4788 21.6574 10.4481 21.9361 10.8815C22.0834 11.1107 22.4338 11.5691 22.6246 11.1875" stroke="#8CD6FF" stroke-width="0.459022" stroke-linecap="round"/>
<path d="M8.39493 17.3078C8.61676 17.2832 8.73898 17.1122 8.89645 16.9678C9.73042 16.2033 10.5299 15.4156 11.3021 14.5877C11.5579 14.3134 11.9556 13.394 12.0586 13.7547C12.2075 14.2758 12.0671 15.0537 12.0671 15.5822C12.0671 17.0415 12.0671 18.5007 12.0671 19.96C12.0671 20.2803 12.1245 20.3404 12.3391 20.555C13.7396 21.9554 14.8008 19.6399 15.1357 18.5234C15.3657 17.757 16.092 16.7714 16.5043 16.0498C16.649 15.7966 16.6653 15.19 16.8868 15.0127C17.0588 14.8752 16.9633 15.804 16.9633 16.0158C16.9633 17.1665 17.1219 18.4367 17.4309 19.5179C17.5166 19.8181 17.6219 20.4825 17.8474 20.708C18.53 21.3906 19.3635 20.1201 19.641 19.6794C20.448 18.3977 21.1777 17.1455 21.8256 15.7778C22.0563 15.2906 22.1656 13.6576 22.1656 14.1967C22.1656 15.0728 22.3397 15.945 22.4376 16.8148C22.5192 17.5405 22.4438 18.5805 22.8456 19.2119C23.0881 19.593 23.0712 20.5065 23.6277 20.6655C25.6214 21.2351 24.9605 17.7669 26.6028 17.7669" stroke="#131313" stroke-width="1.34873" stroke-linecap="round"/>
<path d="M8.59384 8.54285C8.7422 8.54285 6.88994 8.46867 3.96769 8.46754C2.97145 8.46716 2.97413 8.76314 3.01122 9.10032C3.20094 10.825 4.02164 12.5801 4.28464 15.4191C4.65478 19.4147 4.39704 22.2527 4.50943 22.9979C4.58759 23.516 4.54765 24.3365 5.88289 24.7939C9.88862 25.3256 12.9368 25.4762 13.8314 25.5886C14.4293 25.6268 15.3195 25.6268 16.0119 25.6268" stroke="black" stroke-width="1.34873" stroke-linecap="round"/>
<path d="M21.6574 7.11882C23.1433 7.11882 26.2971 6.97046 27.9459 7.0053C28.9554 7.02663 28.6259 12.0282 28.8125 14.9785C29.0116 18.1269 29.0755 21.2535 28.8889 23.7835C28.8475 24.3441 28.8507 25.1603 28.3685 25.5807C25.7059 25.9269 24.2897 25.7763 22.9399 25.665C22.5543 25.5537 22.7769 25.3312 23.0062 25.1019" stroke="black" stroke-width="1.34873" stroke-linecap="round"/>
</svg>
